# xmcd CD database file
#
# Track frame offsets:
#	225
#	19109
#	36148
#	51680
#
# Disc length: 928 seconds
#
# Revision: 0
# Processed by: cddbd v1.4PL0 Copyright (c) Steve Scherf et al.
# Submitted via: CDex 1.50
#
DISCID=32039d04
DTITLE=ZIMA STYLE - TRIANGLE
DYEAR=2003
DGENRE=New Age
TTITLE0=BTB1600GT
TTITLE1=FREE STYLE
TTITLE2=SPIN
TTITLE3=DX7
EXTD=YEAR: 2003
EXTT0=
EXTT1=
EXTT2=
EXTT3=
PLAYORDER=
